<?xml version="1.0" encoding="UTF-8" standalone="no"?>
<!DOCTYPE svg PUBLIC "-//W3C//DTD SVG 1.1//EN" "http://www.w3.org/Graphics/SVG/1.1/DTD/svg11.dtd">
<svg width="100%" height="100%" viewBox="0 0 2955 1317" version="1.1" xmlns="http://www.w3.org/2000/svg" xmlns:xlink="http://www.w3.org/1999/xlink" xml:space="preserve" xmlns:serif="http://www.serif.com/" style="fill-rule:evenodd;clip-rule:evenodd;stroke-linejoin:round;stroke-miterlimit:2;">
    <g transform="matrix(4.16667,0,0,4.16667,0,0)">
        <path d="M660.866,198.998C667.794,187.563 670.649,175.499 672.369,162.944C673.297,156.166 675.611,149.667 680.561,144.548C681.871,143.193 683.294,141.777 684.948,140.962C688.572,139.177 692.574,137.127 696.421,139.735C701.087,142.897 703.515,147.562 703.102,153.42C702.655,159.769 700.391,165.447 696.247,170.203C686.811,181.029 675.728,189.966 663.723,197.784C662.87,198.341 661.823,198.601 660.866,198.998Z" style="fill:rgb(23,178,170);fill-rule:nonzero;"/>
        <path d="M662.731,202.304C667.861,198.234 673.094,195.794 679.339,195.313C685.711,194.823 691.742,195.393 697.425,198.633C703.446,202.064 706.784,207.472 708.347,213.862C709.886,220.149 705.6,224.176 699.229,222.934C694.222,221.96 690.322,218.906 686.449,215.843C683.777,213.73 681.164,211.535 678.413,209.532C676.122,207.863 673.794,206.145 671.246,204.958C668.75,203.795 665.956,203.274 662.731,202.304Z" style="fill:rgb(23,178,170);fill-rule:nonzero;"/>
        <path d="M680.794,190.993C685.006,182.334 693.528,178.539 702.194,181.145C706.522,182.447 709.028,187.544 707.403,191.74C706.412,194.298 704.081,194.253 702.022,194.184C700.288,194.127 698.57,193.436 696.856,192.98C694.283,192.297 691.758,191.284 689.143,190.948C686.547,190.615 683.867,190.946 680.794,190.993Z" style="fill:rgb(20,124,159);fill-rule:nonzero;"/>
        <path d="M47.795,198.998C40.867,187.563 38.013,175.499 36.292,162.944C35.364,156.166 33.051,149.667 28.1,144.548C26.79,143.193 25.367,141.777 23.713,140.962C20.089,139.177 16.087,137.127 12.24,139.735C7.574,142.897 5.145,147.562 5.559,153.42C6.007,159.769 8.27,165.447 12.415,170.203C21.85,181.029 32.933,189.966 44.938,197.784C45.791,198.341 46.838,198.601 47.795,198.998Z" style="fill:rgb(23,178,170);fill-rule:nonzero;"/>
        <path d="M45.93,202.304C40.8,198.234 35.566,195.794 29.322,195.313C22.95,194.823 16.919,195.393 11.236,198.633C5.215,202.064 1.877,207.472 0.313,213.862C-1.224,220.149 3.061,224.176 9.432,222.934C14.438,221.96 18.339,218.906 22.213,215.843C24.884,213.73 27.497,211.535 30.248,209.532C32.54,207.863 34.867,206.145 37.415,204.958C39.91,203.795 42.705,203.274 45.93,202.304Z" style="fill:rgb(23,178,170);fill-rule:nonzero;"/>
        <path d="M27.867,190.993C23.654,182.334 15.134,178.539 6.467,181.145C2.139,182.447 -0.365,187.544 1.259,191.74C2.249,194.298 4.58,194.253 6.639,194.184C8.373,194.127 10.091,193.436 11.805,192.98C14.378,192.297 16.903,191.284 19.518,190.948C22.114,190.615 24.795,190.946 27.867,190.993Z" style="fill:rgb(20,124,159);fill-rule:nonzero;"/>
        <path d="M150.218,117.488C150.218,117.593 150.166,118.14 150.066,119.129C149.957,120.122 149.595,121.505 148.968,123.275C148.341,125.052 147.375,127.187 146.073,129.693C144.769,132.194 142.916,134.96 140.519,137.985C140.31,138.298 140.049,138.559 139.735,138.768C139.212,139.291 138.484,139.549 137.547,139.549C136.502,139.549 135.874,139.235 135.669,138.612C135.456,137.985 135.356,136.055 135.356,132.821C135.356,128.547 134.258,125.209 132.071,122.808C129.879,120.408 126.646,119.209 122.367,119.209C118.611,119.209 114.908,120.331 111.256,122.571C107.605,124.819 104.111,127.843 100.773,131.647C97.435,135.459 94.331,139.862 91.463,144.869C88.592,149.875 86.115,155.196 84.032,160.83C81.945,166.463 80.3,172.23 79.102,178.121C77.904,184.016 77.305,189.674 77.305,195.099C77.305,197.394 77.485,199.663 77.852,201.906C78.213,204.15 78.869,206.129 79.806,207.85C80.747,209.571 82.021,210.954 83.642,211.996C85.254,213.042 87.317,213.564 89.823,213.564C90.76,213.564 92.505,213.274 95.062,212.7C97.616,212.129 100.564,210.564 103.906,208.007C107.239,205.453 110.762,201.541 114.465,196.272C118.169,191.005 121.587,183.674 124.716,174.289C124.816,173.975 125.029,173.661 125.339,173.348C125.548,173.143 125.785,172.905 126.047,172.644C126.304,172.387 126.646,172.254 127.06,172.254C128.414,172.254 129.409,173.01 130.035,174.522C130.659,176.034 130.973,177.679 130.973,179.452C130.973,180.807 130.506,182.894 129.565,185.709C128.628,188.528 127.217,191.632 125.339,195.018C123.465,198.412 121.141,201.906 118.378,205.506C115.611,209.104 112.354,212.39 108.598,215.361C104.843,218.334 100.616,220.759 95.923,222.637C91.23,224.514 86.067,225.455 80.433,225.455C74.904,225.455 70.468,224.595 67.131,222.874C63.793,221.152 61.187,218.936 59.309,216.223C57.432,213.512 56.181,210.536 55.554,207.303C54.926,204.07 54.612,200.89 54.612,197.757C54.612,194.527 55.135,190.092 56.181,184.458C57.222,178.825 58.996,172.724 61.501,166.149C64.002,159.579 67.263,152.903 71.276,146.123C75.294,139.344 80.276,133.211 86.224,127.734C92.167,122.261 99.132,117.778 107.11,114.279C115.093,110.785 124.297,109.039 134.728,109.039C135.456,109.039 136.687,109.116 138.408,109.273C140.129,109.43 141.85,109.768 143.571,110.29C145.292,110.813 146.829,111.645 148.188,112.791C149.539,113.941 150.218,115.506 150.218,117.488Z" style="fill:rgb(120,137,111);fill-rule:nonzero;"/>
        <path d="M203.106,233.59C203.106,234.531 202.531,235.572 201.385,236.719C200.235,237.869 198.699,238.934 196.768,239.928C194.838,240.917 192.595,241.753 190.041,242.433C187.483,243.108 184.745,243.45 181.826,243.45C174.837,243.45 169.517,241.388 165.865,237.269C162.214,233.147 160.388,228.113 160.388,222.17C160.388,216.745 161.848,211.32 164.771,205.895L164.771,205.582C164.771,205.477 164.795,205.401 164.848,205.349C164.9,205.297 164.924,205.216 164.924,205.111C164.924,204.906 164.872,204.798 164.771,204.798C164.458,204.798 164.144,205.063 163.83,205.582C161.221,209.129 158.406,212.258 155.382,214.972C152.772,217.372 149.8,219.508 146.463,221.386C143.121,223.264 139.578,224.2 135.822,224.2C133.84,224.096 132.119,223.577 130.659,222.637C129.409,221.8 128.257,220.605 127.217,219.037C126.175,217.473 125.652,215.181 125.652,212.153C125.652,210.902 125.886,209.129 126.356,206.833C126.823,204.541 127.635,202.035 128.781,199.325C129.931,196.61 131.544,193.848 133.631,191.029C135.718,188.214 138.404,185.657 141.689,183.365C144.975,181.068 148.912,179.19 153.504,177.731C158.092,176.271 163.517,175.539 169.778,175.539C170.092,175.539 170.454,175.591 170.872,175.696C171.6,175.905 171.965,176.375 171.965,177.103C171.965,177.731 171.732,178.306 171.262,178.825C170.795,179.347 170.297,179.661 169.778,179.766C165.499,180.602 161.82,182.323 158.744,184.929C155.667,187.535 153.162,190.382 151.236,193.454C149.302,196.534 147.87,199.477 146.933,202.297C145.992,205.111 145.521,207.146 145.521,208.396C145.521,210.175 145.835,211.216 146.463,211.529C147.09,211.839 147.713,211.996 148.341,211.996C149.8,211.996 151.626,211.111 153.817,209.338C156.009,207.564 158.277,205.297 160.622,202.53C162.97,199.768 165.29,196.663 167.586,193.221C169.878,189.778 171.941,186.389 173.767,183.051C175.593,179.713 177.077,176.585 178.226,173.661C179.372,170.742 179.948,168.446 179.948,166.777C179.948,163.962 179.059,162.056 177.286,161.066C175.512,160.073 173.477,159.579 171.185,159.579C169.517,159.579 167.872,159.812 166.255,160.283C164.639,160.753 163.203,161.247 161.953,161.77C160.493,162.393 159.081,163.073 157.73,163.805C156.684,164.533 155.876,164.976 155.301,165.132C154.73,165.289 154.336,165.37 154.131,165.37C153.399,165.37 153.033,164.847 153.033,163.805C153.033,162.45 153.556,160.934 154.598,159.265C155.639,157.601 157.204,156.008 159.294,154.492C161.377,152.984 164.012,151.705 167.196,150.66C170.377,149.618 174.105,149.095 178.383,149.095C182.867,149.095 186.386,149.67 188.943,150.816C191.501,151.966 193.403,153.322 194.658,154.886C195.908,156.45 196.692,158.015 197.002,159.579C197.315,161.143 197.472,162.345 197.472,163.178C197.472,164.847 197.135,166.777 196.455,168.968C195.775,171.156 195.019,173.295 194.187,175.382C193.142,177.783 192.048,180.289 190.902,182.894C188.605,187.9 186.285,192.935 183.937,197.994C181.592,203.053 179.843,207.722 178.697,211.996C178.383,212.832 178.07,213.825 177.756,214.972C177.233,217.059 176.976,219.351 176.976,221.856C176.976,225.926 178.094,229.106 180.338,231.398C182.581,233.694 186.152,234.841 191.059,234.841C192.413,234.841 193.873,234.687 195.437,234.374C197.002,234.06 198.671,233.485 200.444,232.653L200.758,232.496C200.862,232.496 200.995,232.468 201.152,232.416C201.305,232.363 201.485,232.34 201.699,232.34C202.636,232.34 203.106,232.754 203.106,233.59Z" style="fill:rgb(120,137,111);fill-rule:nonzero;"/>
        <path d="M259.749,154.572C259.749,155.196 259.411,156.241 258.732,157.701C258.053,159.164 257.297,160.781 256.463,162.551C255.628,164.328 254.844,166.101 254.116,167.871C253.388,169.648 252.97,171.156 252.865,172.411C252.865,173.034 252.708,173.56 252.395,173.975C251.872,174.912 250.83,175.382 249.266,175.382C249.057,175.382 248.43,175.33 247.388,175.226C246.343,175.125 245.249,174.835 244.103,174.365C242.953,173.894 241.935,173.166 241.051,172.173C240.162,171.184 239.72,169.748 239.72,167.871C239.72,166.725 239.901,165.602 240.27,164.509C240.633,163.411 241.051,162.393 241.521,161.456C241.992,160.516 242.406,159.655 242.772,158.875C243.138,158.091 243.319,157.387 243.319,156.764C243.319,155.823 242.824,155.276 241.835,155.119C240.842,154.962 239.615,154.886 238.155,154.886C236.905,154.886 235.55,155.095 234.09,155.509C232.626,155.928 231.323,156.607 230.177,157.544C229.027,158.485 228.066,159.683 227.282,161.143C226.498,162.607 226.108,164.328 226.108,166.306C226.108,167.77 226.522,169.491 227.358,171.47C228.195,173.452 229.864,175.33 232.369,177.103C235.703,179.504 238.598,182.424 241.051,185.866C243.5,189.308 244.73,193.221 244.73,197.603C244.73,199.168 244.284,201.488 243.399,204.564C242.511,207.644 240.87,210.745 238.469,213.874C236.068,217.007 232.731,219.717 228.456,222.013C224.178,224.305 218.648,225.455 211.869,225.455C204.252,225.455 198.437,224.048 194.424,221.228C190.407,218.414 188.396,214.658 188.396,209.965C188.396,206.419 189.076,203.446 190.431,201.046C191.786,198.645 193.507,196.691 195.594,195.175C197.682,193.667 200.002,192.569 202.559,191.89C205.113,191.214 207.59,190.872 209.991,190.872C211.973,190.872 212.966,191.552 212.966,192.907C212.966,193.325 212.833,193.716 212.572,194.081C212.311,194.447 212.078,194.785 211.869,195.099C211.555,195.517 211.245,195.83 210.932,196.036C207.799,198.75 205.768,201.412 204.827,204.018C203.89,206.628 203.42,208.815 203.42,210.589C203.42,213.616 204.381,215.885 206.315,217.396C208.246,218.908 210.252,219.664 212.339,219.664C215.258,219.664 217.659,218.936 219.537,217.473C221.415,216.014 222.899,214.292 223.997,212.309C225.09,210.331 225.846,208.32 226.265,206.286C226.679,204.251 226.892,202.663 226.892,201.513C226.892,199.534 226.55,197.813 225.874,196.35C225.195,194.89 224.23,193.482 222.979,192.127C221.728,190.772 220.265,189.336 218.596,187.824C216.927,186.312 215.101,184.458 213.119,182.267C211.346,180.389 210.119,178.539 209.444,176.713C208.764,174.888 208.426,173.143 208.426,171.47C208.426,168.027 209.339,164.927 211.164,162.161C212.991,159.398 215.415,157.074 218.439,155.196C221.467,153.322 224.91,151.862 228.77,150.816C232.626,149.775 236.643,149.252 240.817,149.252C243.319,149.252 245.562,149.409 247.545,149.723C249.523,150.032 251.249,150.346 252.708,150.66C254.377,151.078 255.837,151.496 257.092,151.91C258.861,152.538 259.749,153.426 259.749,154.572Z" style="fill:rgb(120,137,111);fill-rule:nonzero;"/>
        <path d="M323.278,233.59C323.278,234.531 322.703,235.572 321.557,236.719C320.406,237.869 318.871,238.934 316.94,239.928C315.01,240.917 312.766,241.753 310.212,242.433C307.655,243.108 304.916,243.45 301.997,243.45C295.008,243.45 289.688,241.388 286.037,237.269C282.385,233.147 280.56,228.113 280.56,222.17C280.56,216.745 282.019,211.32 284.943,205.895L284.943,205.582C284.943,205.477 284.967,205.401 285.019,205.349C285.072,205.297 285.096,205.216 285.096,205.111C285.096,204.906 285.043,204.798 284.943,204.798C284.629,204.798 284.315,205.063 284.002,205.582C281.392,209.129 278.577,212.258 275.553,214.972C272.943,217.372 269.972,219.508 266.634,221.386C263.292,223.264 259.749,224.2 255.994,224.2C254.011,224.096 252.29,223.577 250.83,222.637C249.58,221.8 248.43,220.605 247.388,219.037C246.347,217.473 245.824,215.181 245.824,212.153C245.824,210.902 246.057,209.129 246.528,206.833C246.994,204.541 247.807,202.035 248.953,199.325C250.102,196.61 251.715,193.848 253.802,191.029C255.889,188.214 258.575,185.657 261.861,183.365C265.146,181.068 269.083,179.19 273.675,177.731C278.264,176.271 283.688,175.539 289.949,175.539C290.263,175.539 290.625,175.591 291.043,175.696C291.771,175.905 292.137,176.375 292.137,177.103C292.137,177.731 291.904,178.306 291.433,178.825C290.967,179.347 290.468,179.661 289.949,179.766C285.671,180.602 281.991,182.323 278.915,184.929C275.839,187.535 273.333,190.382 271.407,193.454C269.473,196.534 268.041,199.477 267.104,202.297C266.164,205.111 265.693,207.146 265.693,208.396C265.693,210.175 266.007,211.216 266.634,211.529C267.261,211.839 267.885,211.996 268.512,211.996C269.972,211.996 271.797,211.111 273.989,209.338C276.181,207.564 278.449,205.297 280.793,202.53C283.142,199.768 285.462,196.663 287.758,193.221C290.05,189.778 292.113,186.389 293.938,183.051C295.764,179.713 297.248,176.585 298.398,173.661C299.544,170.742 300.119,168.446 300.119,166.777C300.119,163.962 299.23,162.056 297.457,161.066C295.684,160.073 293.649,159.579 291.357,159.579C289.688,159.579 288.043,159.812 286.427,160.283C284.81,160.753 283.374,161.247 282.124,161.77C280.664,162.393 279.253,163.073 277.902,163.805C276.856,164.533 276.048,164.976 275.473,165.132C274.902,165.289 274.508,165.37 274.303,165.37C273.571,165.37 273.205,164.847 273.205,163.805C273.205,162.45 273.727,160.934 274.769,159.265C275.81,157.601 277.375,156.008 279.466,154.492C281.549,152.984 284.183,151.705 287.368,150.66C290.548,149.618 294.276,149.095 298.555,149.095C303.039,149.095 306.557,149.67 309.115,150.816C311.672,151.966 313.574,153.322 314.829,154.886C316.08,156.45 316.864,158.015 317.173,159.579C317.487,161.143 317.644,162.345 317.644,163.178C317.644,164.847 317.306,166.777 316.626,168.968C315.947,171.156 315.191,173.295 314.358,175.382C313.313,177.783 312.219,180.289 311.073,182.894C308.777,187.9 306.456,192.935 304.108,197.994C301.764,203.053 300.015,207.722 298.869,211.996C298.555,212.832 298.241,213.825 297.928,214.972C297.405,217.059 297.147,219.351 297.147,221.856C297.147,225.926 298.265,229.106 300.509,231.398C302.753,233.694 306.324,234.841 311.23,234.841C312.585,234.841 314.045,234.687 315.609,234.374C317.173,234.06 318.842,233.485 320.616,232.653L320.929,232.496C321.034,232.496 321.166,232.468 321.323,232.416C321.476,232.363 321.657,232.34 321.87,232.34C322.807,232.34 323.278,232.754 323.278,233.59Z" style="fill:rgb(120,137,111);fill-rule:nonzero;"/>
        <path d="M363.96,166.62C363.96,165.788 363.884,164.951 363.728,164.115C363.571,163.282 362.967,162.864 361.926,162.864C360.048,163.282 357.86,164.665 355.355,167.01C352.85,169.358 350.244,172.202 347.53,175.539C344.819,178.877 342.158,182.556 339.552,186.569C336.942,190.587 334.598,194.499 332.51,198.308C330.423,202.116 328.702,205.582 327.347,208.711C325.988,211.839 325.312,214.187 325.312,215.752C325.312,216.274 325.413,216.85 325.626,217.473C325.831,218.101 326.354,218.414 327.19,218.414C330.214,218.414 333.214,217.396 336.186,215.361C339.162,213.327 342,210.693 344.715,207.46C347.425,204.226 349.958,200.628 352.303,196.663C354.651,192.698 356.686,188.789 358.407,184.929C360.128,181.068 361.484,177.494 362.473,174.208C363.466,170.923 363.96,168.393 363.96,166.62ZM382.426,160.83C382.426,162.393 382.06,165.056 381.329,168.811C380.601,172.567 379.346,176.766 377.573,181.406C375.799,186.051 373.427,190.9 370.455,195.959C367.483,201.018 363.728,205.61 359.187,209.728C354.651,213.85 349.251,217.268 342.994,219.978C336.737,222.688 329.43,224.048 321.086,224.048C319.312,224.048 317.748,224.019 316.393,223.968C315.038,223.915 313.888,223.835 312.951,223.734C311.801,223.63 310.816,223.52 309.979,223.421C308.624,223.315 307.764,222.974 307.397,222.403C307.032,221.828 306.847,221.285 306.847,220.759C306.847,220.239 306.903,219.874 307.003,219.664C307.003,219.455 307.06,219.299 307.16,219.194C307.579,217.839 308.258,216.065 309.195,213.874C310.136,211.686 311.202,209.233 312.404,206.519C313.602,203.809 314.905,200.941 316.317,197.913C317.724,194.89 319.103,191.918 320.463,188.994C323.692,182.11 327.138,174.707 330.789,166.777C332.144,163.753 333.761,160.23 335.639,156.213C337.517,152.2 339.367,148.211 341.192,144.246C343.018,140.281 344.687,136.629 346.203,133.292C347.711,129.954 348.785,127.401 349.408,125.623C349.722,124.791 350.035,123.902 350.349,122.965C350.763,121.401 351.077,119.732 351.286,117.955C351.181,117.854 351.129,117.697 351.129,117.488L351.129,116.547C351.129,116.028 351.262,115.506 351.523,114.983C351.78,114.464 352.432,114.098 353.477,113.889C354.205,113.68 355.146,113.471 356.292,113.262C357.129,113.053 358.194,112.9 359.501,112.791C360.804,112.691 362.187,112.635 363.647,112.635C365.525,112.635 367.507,112.791 369.594,113.105C369.803,113.105 370.008,113.209 370.222,113.419C370.636,113.837 370.845,114.255 370.845,114.669C370.636,115.819 370.037,117.593 369.047,119.989C368.054,122.39 366.856,125.153 365.449,128.285C364.041,131.414 362.501,134.776 360.832,138.374C359.164,141.974 357.491,145.524 355.826,149.015C354.153,152.514 352.54,155.799 350.972,158.875C349.408,161.951 348.053,164.533 346.907,166.62C346.907,166.934 346.931,167.247 346.983,167.557C347.035,167.871 347.164,168.027 347.377,168.027C347.477,168.027 347.791,167.714 348.314,167.09C351.024,164.066 353.739,161.3 356.449,158.794C358.85,156.711 361.484,154.781 364.351,153.008C367.222,151.235 370.113,150.346 373.037,150.346C373.764,150.346 374.681,150.426 375.775,150.583C376.869,150.736 377.911,151.183 378.904,151.91C379.893,152.642 380.729,153.687 381.409,155.043C382.084,156.398 382.426,158.328 382.426,160.83Z" style="fill:rgb(120,137,111);fill-rule:nonzero;"/>
        <path d="M433.432,114.669C433.432,115.192 433.094,116.366 432.414,118.192C431.735,120.018 430.827,122.261 429.676,124.919C428.53,127.581 427.227,130.553 425.767,133.839C424.304,137.124 422.791,140.385 421.228,143.619C417.681,151.444 413.611,160.101 409.023,169.592C407.872,172.097 406.365,175.33 404.487,179.295C402.609,183.26 400.731,187.301 398.853,191.423C396.975,195.545 395.254,199.454 393.69,203.157C392.125,206.861 391.081,209.809 390.557,211.996L389.934,214.187C389.725,214.815 389.568,215.414 389.463,215.989C389.359,216.564 389.307,217.059 389.307,217.473C389.307,218.727 388.941,219.745 388.213,220.525C387.481,221.309 386.568,221.908 385.474,222.326C384.376,222.741 383.15,223.03 381.795,223.187C380.44,223.34 379.137,223.421 377.886,223.421C377.05,223.421 376.165,223.393 375.224,223.34C374.288,223.288 373.374,223.187 372.486,223.03C371.601,222.874 370.87,222.612 370.294,222.246C369.723,221.88 369.434,221.333 369.434,220.605C369.434,220.083 369.49,219.717 369.59,219.508C369.59,219.299 369.647,219.145 369.747,219.037C370.165,217.686 370.845,215.908 371.782,213.717C372.723,211.529 373.789,209.076 374.991,206.366C376.19,203.651 377.493,200.785 378.904,197.757C380.311,194.732 381.691,191.761 383.049,188.837C386.279,181.953 389.725,174.55 393.376,166.62C397.233,158.589 400.675,151.235 403.703,144.555C404.954,141.74 406.208,138.901 407.458,136.03C408.709,133.163 409.831,130.529 410.825,128.128C411.814,125.728 412.622,123.645 413.249,121.868C413.872,120.094 414.186,118.791 414.186,117.955C414.186,117.436 414.134,117.07 414.03,116.861C413.925,116.652 413.872,116.342 413.872,115.924C413.872,115.506 414.03,115.039 414.343,114.513C414.657,113.994 415.332,113.576 416.378,113.262C417.837,112.948 419.088,112.743 420.133,112.635C421.175,112.534 422.326,112.43 423.576,112.325C424.827,112.22 426.078,112.168 427.331,112.168C429.101,112.168 430.561,112.377 431.711,112.791C432.857,113.209 433.432,113.837 433.432,114.669Z" style="fill:rgb(120,137,111);fill-rule:nonzero;"/>
        <path d="M478.185,233.59C478.185,234.531 477.61,235.572 476.463,236.719C475.314,237.869 473.778,238.934 471.847,239.928C469.917,240.917 467.673,241.753 465.12,242.433C462.562,243.108 459.824,243.45 456.904,243.45C449.915,243.45 444.595,241.388 440.944,237.269C437.292,233.147 435.467,228.113 435.467,222.17C435.467,216.745 436.926,211.32 439.85,205.895L439.85,205.582C439.85,205.477 439.874,205.401 439.926,205.349C439.979,205.297 440.002,205.216 440.002,205.111C440.002,204.906 439.951,204.798 439.85,204.798C439.537,204.798 439.223,205.063 438.909,205.582C436.299,209.129 433.485,212.258 430.46,214.972C427.85,217.372 424.878,219.508 421.541,221.386C418.2,223.264 414.657,224.2 410.901,224.2C408.918,224.096 407.198,223.577 405.738,222.637C404.487,221.8 403.337,220.605 402.295,219.037C401.254,217.473 400.731,215.181 400.731,212.153C400.731,210.902 400.964,209.129 401.435,206.833C401.902,204.541 402.713,202.035 403.86,199.325C405.01,196.61 406.622,193.848 408.709,191.029C410.796,188.214 413.483,185.657 416.768,183.365C420.053,181.068 423.99,179.19 428.582,177.731C433.17,176.271 438.595,175.539 444.857,175.539C445.17,175.539 445.532,175.591 445.951,175.696C446.678,175.905 447.044,176.375 447.044,177.103C447.044,177.731 446.811,178.306 446.34,178.825C445.873,179.347 445.375,179.661 444.857,179.766C440.578,180.602 436.899,182.323 433.822,184.929C430.746,187.535 428.241,190.382 426.315,193.454C424.38,196.534 422.949,199.477 422.012,202.297C421.071,205.111 420.6,207.146 420.6,208.396C420.6,210.175 420.914,211.216 421.541,211.529C422.168,211.839 422.791,211.996 423.419,211.996C424.878,211.996 426.705,211.111 428.896,209.338C431.087,207.564 433.356,205.297 435.7,202.53C438.048,199.768 440.369,196.663 442.664,193.221C444.957,189.778 447.02,186.389 448.845,183.051C450.671,179.713 452.155,176.585 453.305,173.661C454.452,170.742 455.026,168.446 455.026,166.777C455.026,163.962 454.137,162.056 452.365,161.066C450.591,160.073 448.556,159.579 446.264,159.579C444.595,159.579 442.951,159.812 441.333,160.283C439.717,160.753 438.282,161.247 437.031,161.77C435.572,162.393 434.16,163.073 432.809,163.805C431.763,164.533 430.955,164.976 430.38,165.132C429.809,165.289 429.414,165.37 429.209,165.37C428.478,165.37 428.112,164.847 428.112,163.805C428.112,162.45 428.635,160.934 429.676,159.265C430.718,157.601 432.282,156.008 434.373,154.492C436.456,152.984 439.09,151.705 442.275,150.66C445.456,149.618 449.183,149.095 453.462,149.095C457.946,149.095 461.464,149.67 464.022,150.816C466.58,151.966 468.482,153.322 469.736,154.886C470.987,156.45 471.771,158.015 472.081,159.579C472.394,161.143 472.551,162.345 472.551,163.178C472.551,164.847 472.213,166.777 471.534,168.968C470.854,171.156 470.098,173.295 469.265,175.382C468.22,177.783 467.126,180.289 465.98,182.894C463.684,187.9 461.364,192.935 459.015,197.994C456.671,203.053 454.921,207.722 453.776,211.996C453.462,212.832 453.148,213.825 452.834,214.972C452.312,217.059 452.054,219.351 452.054,221.856C452.054,225.926 453.172,229.106 455.416,231.398C457.661,233.694 461.231,234.841 466.137,234.841C467.493,234.841 468.952,234.687 470.516,234.374C472.081,234.06 473.749,233.485 475.523,232.653L475.836,232.496C475.941,232.496 476.074,232.468 476.231,232.416C476.383,232.363 476.564,232.34 476.778,232.34C477.714,232.34 478.185,232.754 478.185,233.59Z" style="fill:rgb(120,137,111);fill-rule:nonzero;"/>
        <path d="M547.974,233.12C547.974,234.269 547.319,235.416 546.015,236.566C544.712,237.712 543.043,238.754 541.009,239.694C538.974,240.632 536.758,241.388 534.358,241.963C531.957,242.533 529.717,242.823 527.63,242.823C524.501,242.823 521.554,242.377 518.791,241.492C516.025,240.607 513.628,239.276 511.593,237.503C509.559,235.729 507.966,233.566 506.82,231.009C505.67,228.451 505.099,225.508 505.099,222.17C505.099,219.25 505.726,215.856 506.977,211.996C508.228,208.14 509.687,204.226 511.356,200.262C513.025,196.297 514.722,192.517 516.443,188.918C518.164,185.319 519.547,182.267 520.589,179.766C521.112,178.615 521.63,177.469 522.153,176.323C522.572,175.382 523.013,174.341 523.484,173.191C523.955,172.045 524.345,171.003 524.659,170.062C524.868,169.543 524.972,168.916 524.972,168.184C524.972,167.143 524.501,166.62 523.56,166.62C522.623,166.829 521.788,167.09 521.059,167.404C520.641,167.613 520.328,167.871 520.119,168.184C516.466,171.626 512.948,175.282 509.559,179.138C506.168,182.998 502.988,186.859 500.012,190.715C497.04,194.576 494.378,198.227 492.034,201.669C489.686,205.111 487.731,208.14 486.166,210.745C485.64,211.686 485.122,212.571 484.599,213.407C484.076,214.244 483.585,215.048 483.115,215.832C482.644,216.612 482.198,217.372 481.784,218.101C480.633,220.187 478.865,221.647 476.463,222.479C474.063,223.315 471.714,223.734 469.422,223.734C468.067,223.734 466.631,223.52 465.12,223.106C463.608,222.688 462.852,221.908 462.852,220.759C462.852,220.239 462.904,219.874 463.008,219.664C463.008,219.455 463.061,219.299 463.165,219.194C463.688,217.839 464.392,216.118 465.277,214.03C466.162,211.947 467.155,209.651 468.248,207.146C469.346,204.645 470.492,202.035 471.691,199.325C472.889,196.61 474.116,193.9 475.37,191.186C478.185,184.929 481.261,178.253 484.599,171.156C485.435,169.387 486.215,167.557 486.947,165.683C487.47,164.223 487.989,162.655 488.511,160.986C489.034,159.321 489.295,157.91 489.295,156.764C489.191,156.241 489.111,155.875 489.058,155.666C489.006,155.461 488.982,155.196 488.982,154.886C488.982,154.363 489.111,153.844 489.372,153.322C489.633,152.799 490.285,152.381 491.331,152.067C491.849,151.862 493.256,151.597 495.552,151.287C497.849,150.973 500.092,150.816 502.284,150.816C503.949,150.816 505.384,150.949 506.587,151.206C507.782,151.468 508.384,152.015 508.384,152.851C508.384,154.729 507.809,157.206 506.664,160.283C505.513,163.363 504.134,166.568 502.517,169.905C500.897,173.247 499.281,176.557 497.667,179.842C496.047,183.127 494.773,185.866 493.831,188.058C493.727,188.162 493.674,188.267 493.674,188.371L493.674,188.837C493.674,189.151 493.831,189.308 494.145,189.308C494.458,189.308 494.716,189.207 494.929,188.994C495.03,188.894 495.134,188.737 495.239,188.528C495.343,188.319 496.152,187.249 497.667,185.319C499.175,183.389 501.11,180.992 503.455,178.121C505.803,175.254 508.489,172.202 511.513,168.968C514.537,165.735 517.641,162.707 520.827,159.893C524.007,157.074 527.135,154.753 530.211,152.928C533.289,151.106 536.079,150.189 538.584,150.189C540.358,150.189 542.05,150.688 543.671,151.677C545.288,152.67 546.096,154.52 546.096,157.23C546.096,158.485 545.882,159.92 545.468,161.533C545.05,163.154 544.319,165.056 543.277,167.247C542.236,169.543 541.114,171.993 539.915,174.602C538.712,177.208 537.434,179.975 536.079,182.894C535.456,184.354 534.358,186.702 532.793,189.935C531.229,193.168 529.637,196.715 528.02,200.575C526.404,204.436 524.997,208.297 523.797,212.153C522.594,216.014 521.997,219.299 521.997,222.013C521.997,225.768 523.169,228.74 525.519,230.933C527.868,233.12 531.229,234.218 535.613,234.218C536.863,234.218 538.294,234.085 539.915,233.827C541.532,233.566 543.225,233.016 544.998,232.183C545.103,232.183 545.259,232.131 545.468,232.026C545.677,232.026 545.834,231.998 545.939,231.949C546.039,231.893 546.197,231.869 546.41,231.869C546.719,231.869 547.057,231.949 547.427,232.106C547.789,232.259 547.974,232.597 547.974,233.12Z" style="fill:rgb(120,137,111);fill-rule:nonzero;"/>
        <path d="M604.303,155.666C604.303,155.98 604.199,156.45 603.99,157.074C602.74,159.893 601.537,162.551 600.391,165.056C599.454,167.143 598.513,169.254 597.576,171.393C596.635,173.533 595.903,175.125 595.384,176.166C595.28,176.585 595.123,176.947 594.914,177.26C594.287,177.888 593.559,178.197 592.722,178.197C592.618,178.197 592.175,178.121 591.395,177.964C590.611,177.807 589.75,177.417 588.814,176.79C587.872,176.166 587.037,175.254 586.308,174.051C585.577,172.853 585.214,171.212 585.214,169.125C585.214,166.306 586.099,162.812 587.872,158.642C587.872,158.537 587.925,158.38 588.03,158.171C588.239,157.753 588.343,157.387 588.343,157.074C588.343,156.659 588.134,156.37 587.716,156.213C587.297,156.056 586.828,155.98 586.308,155.98C583.594,155.98 580.465,157.624 576.918,160.91C573.372,164.195 570.035,168.317 566.906,173.271C563.778,178.226 561.139,183.598 559.004,189.389C556.865,195.175 555.795,200.628 555.795,205.739C555.795,208.244 556.318,210.226 557.36,211.686C558.401,213.146 560.178,213.874 562.679,213.874C563.516,213.874 564.714,213.669 566.279,213.251C567.843,212.832 569.592,211.895 571.522,210.432C573.453,208.972 575.511,206.833 577.703,204.018C579.895,201.199 582.03,197.343 584.117,192.436C584.221,192.231 584.378,191.97 584.587,191.656C585.001,191.029 585.419,190.715 585.838,190.715C586.047,190.715 586.566,190.929 587.402,191.343C588.239,191.761 588.657,192.698 588.657,194.157C588.657,194.785 588.5,195.569 588.186,196.506C585.372,203.391 582.163,208.711 578.564,212.467C574.964,216.223 571.495,218.989 568.157,220.759C564.819,222.532 561.9,223.601 559.394,223.968C556.893,224.333 555.377,224.514 554.858,224.514C548.388,224.514 543.747,222.817 540.932,219.432C538.114,216.041 536.706,211.738 536.706,206.519C536.706,202.872 537.333,198.959 538.584,194.785C539.834,190.615 541.608,186.441 543.904,182.267C546.197,178.097 548.963,174.08 552.196,170.219C555.429,166.363 558.976,162.969 562.836,160.049C566.697,157.13 570.842,154.781 575.278,153.008C579.709,151.235 584.274,150.346 588.966,150.346C591.886,150.346 594.524,150.531 596.872,150.893C599.216,151.263 601.067,151.809 602.425,152.538C602.74,152.747 603.053,153.008 603.363,153.322C603.99,153.945 604.303,154.729 604.303,155.666Z" style="fill:rgb(120,137,111);fill-rule:nonzero;"/>
        <path d="M667.205,233.59C667.205,234.531 666.629,235.572 665.483,236.719C664.333,237.869 662.797,238.934 660.867,239.928C658.937,240.917 656.693,241.753 654.139,242.433C651.581,243.108 648.843,243.45 645.923,243.45C638.935,243.45 633.615,241.388 629.963,237.269C626.312,233.147 624.487,228.113 624.487,222.17C624.487,216.745 625.946,211.32 628.87,205.895L628.87,205.582C628.87,205.477 628.894,205.401 628.946,205.349C628.998,205.297 629.022,205.216 629.022,205.111C629.022,204.906 628.97,204.798 628.87,204.798C628.556,204.798 628.243,205.063 627.928,205.582C625.319,209.129 622.504,212.258 619.48,214.972C616.871,217.372 613.898,219.508 610.561,221.386C607.219,223.264 603.676,224.2 599.92,224.2C597.938,224.096 596.217,223.577 594.757,222.637C593.506,221.8 592.357,220.605 591.315,219.037C590.274,217.473 589.75,215.181 589.75,212.153C589.75,210.902 589.984,209.129 590.455,206.833C590.92,204.541 591.733,202.035 592.879,199.325C594.03,196.61 595.642,193.848 597.729,191.029C599.816,188.214 602.502,185.657 605.788,183.365C609.073,181.068 613.009,179.19 617.602,177.731C622.19,176.271 627.615,175.539 633.876,175.539C634.19,175.539 634.551,175.591 634.97,175.696C635.698,175.905 636.064,176.375 636.064,177.103C636.064,177.731 635.831,178.306 635.36,178.825C634.893,179.347 634.395,179.661 633.876,179.766C629.597,180.602 625.918,182.323 622.841,184.929C619.765,187.535 617.26,190.382 615.334,193.454C613.4,196.534 611.968,199.477 611.032,202.297C610.09,205.111 609.62,207.146 609.62,208.396C609.62,210.175 609.933,211.216 610.561,211.529C611.188,211.839 611.811,211.996 612.439,211.996C613.898,211.996 615.724,211.111 617.915,209.338C620.107,207.564 622.375,205.297 624.719,202.53C627.068,199.768 629.388,196.663 631.684,193.221C633.977,189.778 636.039,186.389 637.865,183.051C639.691,179.713 641.174,176.585 642.325,173.661C643.471,170.742 644.045,168.446 644.045,166.777C644.045,163.962 643.157,162.056 641.383,161.066C639.611,160.073 637.576,159.579 635.284,159.579C633.615,159.579 631.97,159.812 630.353,160.283C628.737,160.753 627.301,161.247 626.05,161.77C624.591,162.393 623.179,163.073 621.829,163.805C620.783,164.533 619.974,164.976 619.4,165.132C618.829,165.289 618.434,165.37 618.229,165.37C617.497,165.37 617.131,164.847 617.131,163.805C617.131,162.45 617.654,160.934 618.696,159.265C619.737,157.601 621.301,156.008 623.393,154.492C625.476,152.984 628.11,151.705 631.294,150.66C634.475,149.618 638.203,149.095 642.482,149.095C646.965,149.095 650.484,149.67 653.041,150.816C655.599,151.966 657.501,153.322 658.755,154.886C660.006,156.45 660.79,158.015 661.1,159.579C661.414,161.143 661.571,162.345 661.571,163.178C661.571,164.847 661.233,166.777 660.553,168.968C659.873,171.156 659.118,173.295 658.286,175.382C657.24,177.783 656.146,180.289 654.999,182.894C652.704,187.9 650.383,192.935 648.035,197.994C645.691,203.053 643.941,207.722 642.795,211.996C642.482,212.832 642.167,213.825 641.854,214.972C641.331,217.059 641.074,219.351 641.074,221.856C641.074,225.926 642.192,229.106 644.436,231.398C646.68,233.694 650.25,234.841 655.157,234.841C656.512,234.841 657.971,234.687 659.536,234.374C661.1,234.06 662.769,233.485 664.542,232.653L664.856,232.496C664.96,232.496 665.093,232.468 665.249,232.416C665.403,232.363 665.583,232.34 665.796,232.34C666.734,232.34 667.205,232.754 667.205,233.59Z" style="fill:rgb(120,137,111);fill-rule:nonzero;"/>
        <path d="M570.004,111.492C558.114,97.144 546.398,82.642 534.123,68.629C532.131,66.355 527.624,66.341 524.337,65.125C521.056,63.912 515.991,63.331 514.959,61.02C512.038,54.479 506.844,52.087 500.854,51.336C493.626,50.429 488.65,46.807 483.912,41.661C479.253,36.6 474.027,31.941 468.506,27.836C463.802,24.339 459.143,24.973 455.413,30.305C453.477,33.07 450.705,35.297 448.119,37.547C444.795,40.439 440.57,42.573 437.986,45.982C431.75,54.208 428.996,54.069 422.194,46.061C417.745,40.824 411.792,36.864 406.514,32.332C402.796,27.123 399.277,21.756 395.286,16.766C392.967,13.868 389.814,11.653 387.197,8.974C386.095,7.846 385.691,5.92 384.474,5.046C381.8,3.126 381.856,0.958 375.433,0.231C369.011,-0.496 347.83,20.876 337.848,33.492C336.8,31.561 334.574,31.852 332.133,32.855C325.588,35.542 318.502,37.643 312.897,41.718C304.532,47.8 297.061,55.177 289.582,62.389C285.131,66.681 280.943,66.934 275.981,63.762C271.313,60.778 266.752,57.462 261.72,55.266C258.381,53.809 253.502,52.458 250.691,53.848C241.059,58.607 231.956,64.471 222.81,70.167C217.215,73.651 211.942,77.651 206.458,81.319C203.046,83.601 199.17,85.305 196.101,87.961C190.38,92.912 185.215,98.5 179.585,103.562C176.363,106.46 172.68,108.845 169.205,111.46C168.521,112.07 169.09,113.719 170.244,113.339C178.683,109.829 187.872,107.468 195.399,102.559C209.404,93.423 222.486,82.863 235.847,72.758C239.335,70.119 242.282,66.766 245.75,64.097C252.399,58.979 254.073,59.497 259.281,65.932C262.124,69.445 265.237,73.523 269.148,75.2C274.511,77.499 275.008,80.384 273.199,84.871C270.246,92.196 267.217,99.491 264.209,106.793C263.866,107.626 264.985,107.733 265.877,106.939C271.711,101.747 277.247,96.144 282.421,90.224C286.46,85.602 289.543,80.148 293.556,75.499C298.935,69.267 304.657,63.308 310.507,57.51C314.692,53.362 325.411,39.675 330.739,40.359C329.066,55.368 319.143,65.635 309.164,76.96C308.34,77.894 309.285,79.547 310.467,79.316C318.738,77.705 323.46,72.644 327.454,66.639C330.362,62.265 332.748,57.543 335.667,53.177C338.742,48.578 343.284,44.645 345.204,39.659C348.697,30.584 355.064,24.412 361.91,18.095C365.256,15.005 371.071,6.169 374.221,6.896C380.644,5.806 390.406,15.262 392.709,24.318C395.201,34.111 401.47,35.804 408.999,37.613C413.231,41.438 420.63,48.92 420.419,48.963C422.374,51.002 425.968,55.604 423.62,59.818C419.421,63.602 414.776,62.718 410.145,60.87C401.474,57.41 398.837,58.212 392.176,64.99C388.528,68.703 384.385,72.104 379.97,74.852C371.885,79.885 366.558,87.032 361.101,95.595C360.571,96.426 361.496,97.298 362.404,96.785C370.767,92.062 374.745,84.265 384.704,82.62C386.956,82.247 394.913,74.197 399.756,70.731C400.852,69.947 403.181,69.38 404.021,69.987C410.428,74.616 418.826,76.308 423.121,84.165C426.629,90.583 431.357,96.335 435.544,102.382C435.868,103.293 437.834,102.492 437.251,101.472C434.664,96.169 431.87,90.829 429.728,85.352C428.577,82.408 424.499,71.744 425.842,69.664C429.635,63.787 430.823,61.657 430.965,59.757C432.053,60.958 433.115,61.763 434.025,61.37C436.143,60.456 454.981,46.885 458.733,33.333C460.233,27.917 464.82,28.268 467.879,31.711C472.598,37.021 476.78,42.891 480.585,48.906C483.729,53.874 487.12,56.65 493.495,55.947C500.498,55.175 506.625,57.968 508.841,65.11C511.758,74.514 513.931,84.149 516.343,93.682C516.517,94.368 517.136,94.373 517.268,93.674C518.161,88.954 519.038,83.732 520.422,78.649C521.01,76.492 522.985,74.543 524.773,73.024C525.144,72.709 527.761,74.469 528.881,75.695C538.619,86.359 547.985,97.378 558.064,107.705C561.385,111.109 571.126,117.415 570.742,115.27C571.057,112.967 570.581,112.187 570.004,111.492Z" style="fill:rgb(116,146,77);fill-rule:nonzero;"/>
        <path d="M279.043,254.949C278.963,255.266 278.756,255.85 278.42,256.699C278.084,257.55 277.658,258.569 277.144,259.755C276.63,260.941 276.077,262.237 275.483,263.641C274.89,265.046 274.287,266.42 273.674,267.765C273.06,269.109 272.477,270.375 271.923,271.561C271.369,272.748 270.894,273.718 270.499,274.469C269.471,276.447 268.482,278.474 267.533,280.55C266.584,282.627 265.724,284.674 264.952,286.691C264.181,288.708 263.567,290.646 263.113,292.506C262.658,294.365 262.431,296.065 262.431,297.607C262.431,298.438 262.509,299.17 262.668,299.803C262.707,299.961 262.727,300.159 262.727,300.396C262.727,300.791 262.549,300.99 262.193,300.99C261.995,300.99 261.816,300.931 261.659,300.811C260.67,300.179 259.859,299.486 259.226,298.735C258.594,297.983 258.088,297.212 257.713,296.421C257.337,295.63 257.07,294.828 256.913,294.018C256.754,293.208 256.674,292.427 256.674,291.675C256.674,290.212 256.962,288.59 257.536,286.809C258.109,285.029 258.782,283.279 259.553,281.559C260.324,279.838 261.096,278.227 261.867,276.724C262.638,275.221 263.241,273.994 263.677,273.045C263.677,273.006 263.696,272.926 263.736,272.808C263.814,272.65 263.854,272.472 263.854,272.273C263.854,272.036 263.755,271.858 263.558,271.739C263.359,271.661 262.529,271.621 261.066,271.621L254.895,271.621C254.816,271.621 254.737,271.642 254.658,271.681C254.46,271.76 254.322,271.898 254.243,272.096C253.372,273.876 252.512,275.626 251.662,277.347C250.811,279.067 250.03,280.719 249.318,282.301C248.606,283.883 247.973,285.356 247.42,286.721C246.866,288.085 246.45,289.263 246.174,290.251C245.936,291.121 245.778,291.734 245.699,292.09C245.62,292.446 245.58,292.842 245.58,293.276C245.58,293.791 245.422,294.207 245.106,294.522C244.789,294.839 244.384,295.086 243.89,295.265C243.394,295.442 242.851,295.56 242.258,295.62C241.665,295.68 241.091,295.709 240.538,295.709C240.063,295.709 239.637,295.699 239.262,295.68C238.886,295.659 238.599,295.63 238.401,295.591C237.769,295.511 237.354,295.353 237.156,295.116C236.958,294.879 236.859,294.622 236.859,294.345C236.859,294.068 236.879,293.891 236.918,293.81L237.037,293.573C237.274,292.941 237.581,292.159 237.956,291.229C238.333,290.301 238.758,289.302 239.232,288.233C239.707,287.166 240.211,286.049 240.745,284.882C241.279,283.715 241.803,282.559 242.317,281.41C243.543,278.761 244.848,275.973 246.233,273.045L246.471,272.57C246.628,272.254 246.708,272.036 246.708,271.918C246.708,271.879 246.648,271.799 246.53,271.681C246.49,271.642 246.45,271.621 246.411,271.621C245.62,271.621 244.997,271.661 244.542,271.739C244.087,271.819 243.741,271.888 243.504,271.947C243.267,272.007 243.068,272.066 242.911,272.125C242.752,272.184 242.574,272.214 242.377,272.214C242.059,272.214 241.902,272.057 241.902,271.739C241.902,271.621 241.951,271.393 242.05,271.058C242.149,270.722 242.367,270.375 242.703,270.018C243.038,269.663 243.504,269.347 244.097,269.069C244.691,268.794 245.481,268.654 246.471,268.654L247.835,268.654C248.033,268.654 248.21,268.575 248.369,268.417C248.448,268.338 248.507,268.26 248.547,268.18C249.378,266.399 250.109,264.778 250.742,263.314C251.374,261.851 251.909,260.548 252.344,259.398C252.423,259.083 252.522,258.767 252.641,258.449C252.72,258.173 252.789,257.877 252.849,257.56C252.908,257.243 252.937,256.928 252.937,256.61C252.937,256.294 252.898,256.076 252.819,255.958C252.739,255.839 252.7,255.642 252.7,255.364C252.7,255.167 252.769,254.978 252.908,254.801C253.046,254.623 253.353,254.475 253.828,254.355C254.143,254.277 254.777,254.168 255.726,254.029C256.674,253.892 257.644,253.821 258.633,253.821C259.424,253.821 260.117,253.901 260.709,254.059C261.303,254.218 261.6,254.515 261.6,254.949C261.519,255.266 261.303,255.879 260.946,256.789C260.591,257.698 260.146,258.776 259.612,260.022C259.079,261.268 258.493,262.613 257.862,264.057C257.229,265.501 256.596,266.914 255.963,268.299C255.924,268.299 255.904,268.318 255.904,268.357L255.904,268.536C255.904,268.734 256.002,268.832 256.2,268.832C257.584,268.832 258.821,268.823 259.909,268.803C260.997,268.783 261.915,268.754 262.668,268.714C263.538,268.675 264.289,268.635 264.922,268.595C265.12,268.595 265.288,268.546 265.427,268.446C265.565,268.349 265.694,268.239 265.812,268.12C265.97,267.963 266.089,267.805 266.168,267.645C266.682,266.539 267.197,265.421 267.711,264.294C268.225,263.166 268.69,262.108 269.105,261.119C269.52,260.131 269.847,259.231 270.084,258.42C270.322,257.609 270.44,256.928 270.44,256.373C270.44,256.176 270.411,256.027 270.351,255.928C270.292,255.83 270.262,255.661 270.262,255.424C270.262,255.226 270.341,255.009 270.499,254.77C270.657,254.533 270.974,254.376 271.449,254.296C271.725,254.218 272.339,254.109 273.288,253.97C274.237,253.832 275.206,253.763 276.195,253.763C276.986,253.763 277.658,253.851 278.212,254.029C278.766,254.207 279.043,254.515 279.043,254.949Z" style="fill:rgb(83,110,77);fill-rule:nonzero;"/>
        <path d="M298.978,272.333C298.978,272.728 298.741,273.006 298.266,273.163C297.673,273.48 297.119,273.786 296.605,274.083C296.09,274.38 295.645,274.735 295.27,275.151C294.893,275.566 294.567,276.061 294.291,276.635C294.014,277.208 293.816,277.91 293.698,278.74C293.342,281.431 292.63,283.834 291.562,285.949C290.494,288.065 289.238,289.865 287.794,291.349C286.35,292.832 284.778,293.969 283.078,294.76C281.376,295.551 279.715,295.946 278.094,295.946C276.63,295.946 275.403,295.728 274.415,295.294C273.426,294.858 272.635,294.285 272.042,293.573C271.449,292.861 271.023,292.041 270.767,291.111C270.509,290.183 270.381,289.223 270.381,288.233C270.381,287.127 270.538,285.841 270.855,284.377C271.171,282.914 271.646,281.401 272.279,279.838C272.912,278.276 273.712,276.733 274.682,275.211C275.651,273.688 276.789,272.323 278.094,271.116C279.399,269.91 280.872,268.932 282.514,268.18C284.155,267.429 285.964,267.053 287.943,267.053C288.18,267.053 288.575,267.082 289.129,267.142C289.683,267.201 290.247,267.31 290.82,267.468C291.393,267.626 291.888,267.853 292.304,268.15C292.719,268.446 292.926,268.832 292.926,269.307C292.926,269.506 292.876,269.713 292.778,269.93C292.679,270.147 292.412,270.257 291.977,270.257C291.779,270.257 291.63,270.237 291.532,270.197C291.433,270.158 291.325,270.108 291.206,270.049C291.087,269.989 290.939,269.93 290.761,269.871C290.583,269.811 290.295,269.781 289.9,269.781C288.516,269.781 287.102,270.395 285.658,271.621C284.214,272.848 282.879,274.39 281.654,276.249C280.427,278.108 279.429,280.135 278.657,282.33C277.886,284.525 277.5,286.572 277.5,288.471C277.5,289.618 277.738,290.587 278.212,291.378C278.687,292.17 279.497,292.564 280.645,292.564C281.594,292.564 282.523,292.249 283.434,291.615C284.343,290.983 285.173,290.123 285.925,289.034C286.676,287.947 287.28,286.661 287.735,285.178C288.189,283.694 288.417,282.103 288.417,280.402C288.417,279.374 288.318,278.562 288.121,277.97C287.922,277.376 287.715,276.901 287.497,276.546C287.28,276.189 287.072,275.923 286.874,275.744C286.676,275.566 286.578,275.358 286.578,275.121C286.578,274.964 286.617,274.766 286.697,274.528C286.775,274.291 286.973,274.054 287.29,273.816C288.278,273.025 289.505,272.402 290.969,271.947C292.432,271.493 294.014,271.265 295.715,271.265C295.991,271.265 296.317,271.275 296.694,271.295C297.069,271.315 297.425,271.364 297.762,271.443C298.098,271.522 298.385,271.631 298.622,271.769C298.859,271.908 298.978,272.096 298.978,272.333Z" style="fill:rgb(83,110,77);fill-rule:nonzero;"/>
        <path d="M316.243,257.798C316.243,258.035 316.124,258.332 315.887,258.686C315.412,259.479 314.937,260.368 314.463,261.356C314.027,262.187 313.533,263.196 312.979,264.383C312.425,265.569 311.852,266.855 311.259,268.239C311.259,268.476 311.397,268.595 311.674,268.595L314.759,268.595C315.115,268.595 315.332,268.665 315.412,268.803C315.491,268.941 315.531,269.069 315.531,269.188C315.531,269.624 315.323,270.01 314.908,270.346C314.493,270.682 314.166,270.85 313.929,270.85L310.547,270.85C310.349,270.85 310.17,270.93 310.013,271.087L309.835,271.265C309.518,271.976 309.073,272.926 308.5,274.113C307.926,275.3 307.303,276.615 306.631,278.059C305.958,279.503 305.286,281.025 304.614,282.627C303.941,284.228 303.328,285.792 302.774,287.314C302.22,288.837 301.766,290.28 301.41,291.645C301.054,293.01 300.876,294.167 300.876,295.116C300.876,296.144 301.063,297.123 301.439,298.053C301.815,298.981 302.517,299.724 303.546,300.277C303.664,300.316 303.783,300.376 303.902,300.456C303.98,300.534 304.07,300.624 304.169,300.723C304.267,300.821 304.317,300.95 304.317,301.108C304.277,301.465 304.06,301.682 303.664,301.761C303.268,301.84 302.913,301.88 302.597,301.88C301.211,301.88 300.005,301.662 298.977,301.227C297.948,300.791 297.098,300.198 296.426,299.447C295.753,298.695 295.259,297.854 294.943,296.926C294.626,295.996 294.468,295.017 294.468,293.988C294.468,292.684 294.784,291.081 295.417,289.183C296.05,287.284 296.831,285.287 297.761,283.19C298.69,281.095 299.66,278.998 300.668,276.901C301.677,274.806 302.576,272.926 303.368,271.265C303.368,270.988 303.249,270.85 303.012,270.85L300.342,270.85C299.986,270.85 299.768,270.77 299.689,270.612C299.61,270.455 299.571,270.315 299.571,270.197C299.571,269.881 299.649,269.624 299.808,269.426C299.966,269.228 300.143,269.069 300.342,268.951C300.539,268.832 300.727,268.743 300.906,268.684C301.083,268.625 301.211,268.595 301.291,268.595L302.774,268.595C303.051,268.595 303.368,268.517 303.724,268.357C304,268.239 304.307,268.031 304.643,267.734C304.979,267.438 305.306,267.014 305.622,266.459C305.938,265.866 306.443,265.046 307.135,263.997C307.827,262.949 308.638,261.931 309.568,260.941C310.497,259.953 311.476,259.093 312.505,258.36C313.533,257.629 314.541,257.263 315.531,257.263C316.005,257.263 316.243,257.44 316.243,257.798Z" style="fill:rgb(83,110,77);fill-rule:nonzero;"/>
        <path d="M329.591,270.434C329.591,269.881 329.473,269.535 329.235,269.396C328.998,269.258 328.78,269.188 328.582,269.188C328.384,269.188 327.989,269.248 327.396,269.366C326.803,269.485 326.061,269.891 325.171,270.583C324.281,271.275 323.262,272.362 322.116,273.846C320.968,275.329 319.781,277.435 318.556,280.165C318.516,280.165 318.497,280.184 318.497,280.224L318.497,280.402C318.497,280.56 318.595,280.659 318.793,280.698C318.991,280.738 319.158,280.758 319.297,280.758L319.742,280.758C321.166,280.758 322.472,280.333 323.658,279.482C324.845,278.632 325.883,277.643 326.773,276.516C327.663,275.389 328.354,274.252 328.85,273.104C329.344,271.957 329.591,271.067 329.591,270.434ZM334.753,272.096C334.753,273.6 334.288,275.003 333.359,276.308C332.429,277.613 331.232,278.74 329.769,279.69C328.306,280.64 326.674,281.391 324.874,281.944C323.074,282.499 321.285,282.775 319.505,282.775L318.852,282.775C318.615,282.775 318.378,282.756 318.141,282.716C317.982,282.716 317.873,282.736 317.814,282.775C317.755,282.815 317.685,282.854 317.606,282.893C317.527,282.974 317.488,283.033 317.488,283.072C317.171,283.823 316.874,284.684 316.598,285.652C316.321,286.622 316.183,287.561 316.183,288.471C316.183,290.884 317.329,292.09 319.623,292.09C320.493,292.09 321.275,291.933 321.967,291.615C322.659,291.3 323.302,290.864 323.895,290.31C324.489,289.757 325.042,289.094 325.557,288.322C326.07,287.552 326.604,286.711 327.159,285.801C327.198,285.723 327.257,285.623 327.337,285.504C327.494,285.267 327.672,285.148 327.871,285.148C328.543,285.148 328.879,285.466 328.879,286.098C328.879,286.415 328.78,286.809 328.582,287.284C327.95,288.748 327.148,290.034 326.18,291.141C325.21,292.249 324.152,293.168 323.005,293.899C321.858,294.632 320.652,295.176 319.386,295.531C318.12,295.888 316.874,296.065 315.648,296.065C314.738,296.065 313.888,295.936 313.097,295.68C312.306,295.422 311.614,295.007 311.02,294.434C310.427,293.86 309.953,293.128 309.597,292.238C309.241,291.349 309.063,290.271 309.063,289.005C309.063,287.344 309.32,285.652 309.834,283.932C310.348,282.212 311.06,280.55 311.97,278.948C312.879,277.347 313.947,275.833 315.174,274.409C316.399,272.985 317.734,271.739 319.179,270.672C320.622,269.603 322.145,268.764 323.747,268.15C325.349,267.537 326.96,267.23 328.582,267.23C329.136,267.23 329.769,267.27 330.481,267.35C331.193,267.429 331.865,267.637 332.498,267.972C333.131,268.309 333.664,268.803 334.101,269.455C334.535,270.108 334.753,270.988 334.753,272.096Z" style="fill:rgb(83,110,77);fill-rule:nonzero;"/>
        <path d="M353.561,254.296C353.561,254.495 353.432,254.939 353.175,255.631C352.917,256.324 352.572,257.174 352.137,258.183C351.701,259.191 351.207,260.319 350.654,261.565C350.099,262.81 349.526,264.047 348.933,265.272C347.588,268.239 346.045,271.522 344.305,275.121C343.87,276.07 343.297,277.297 342.584,278.8C341.872,280.304 341.161,281.836 340.449,283.398C339.737,284.961 339.084,286.444 338.491,287.848C337.897,289.252 337.501,290.369 337.304,291.2L337.067,292.031C336.987,292.268 336.928,292.496 336.889,292.713C336.849,292.931 336.83,293.119 336.83,293.276C336.83,293.751 336.69,294.137 336.414,294.434C336.137,294.73 335.791,294.957 335.376,295.116C334.96,295.273 334.495,295.383 333.982,295.442C333.467,295.502 332.973,295.531 332.498,295.531C332.181,295.531 331.846,295.521 331.49,295.502C331.134,295.481 330.788,295.442 330.452,295.383C330.116,295.323 329.839,295.225 329.621,295.086C329.404,294.947 329.294,294.74 329.294,294.463C329.294,294.266 329.315,294.128 329.354,294.048C329.354,293.969 329.374,293.91 329.413,293.87C329.572,293.356 329.829,292.684 330.185,291.852C330.54,291.022 330.946,290.093 331.401,289.064C331.855,288.036 332.35,286.948 332.884,285.801C333.418,284.654 333.942,283.527 334.456,282.419C335.682,279.809 336.987,277.001 338.372,273.994C339.835,270.949 341.14,268.16 342.288,265.629C342.763,264.56 343.237,263.483 343.712,262.394C344.186,261.308 344.611,260.31 344.988,259.398C345.363,258.489 345.67,257.698 345.907,257.026C346.144,256.354 346.263,255.859 346.263,255.542C346.263,255.345 346.243,255.207 346.204,255.127C346.164,255.048 346.144,254.93 346.144,254.77C346.144,254.613 346.204,254.435 346.323,254.237C346.441,254.04 346.698,253.881 347.094,253.763C347.647,253.643 348.122,253.564 348.518,253.525C348.913,253.486 349.348,253.446 349.823,253.406C350.298,253.367 350.772,253.347 351.247,253.347C351.919,253.347 352.473,253.427 352.908,253.584C353.343,253.743 353.561,253.98 353.561,254.296Z" style="fill:rgb(83,110,77);fill-rule:nonzero;"/>
        <path d="M377.055,290.844C377.055,290.766 377.044,290.706 377.025,290.666C377.005,290.627 376.996,290.587 376.996,290.548L376.996,290.429C376.678,289.875 376.372,289.302 376.076,288.708C375.78,288.115 375.472,287.482 375.157,286.809C373.653,283.566 372.516,280.768 371.745,278.414C370.974,276.061 370.429,274.133 370.114,272.63L369.995,272.393C369.876,272.194 369.737,272.096 369.58,272.096C369.46,272.096 369.362,272.116 369.283,272.155C368.096,272.946 367.047,273.895 366.138,275.003C365.346,275.952 364.634,277.149 364.002,278.593C363.369,280.037 363.052,281.727 363.052,283.665C363.052,284.417 363.112,285.169 363.231,285.92C363.468,287.146 363.943,288.254 364.655,289.242C365.208,290.073 366.019,290.835 367.087,291.526C368.155,292.219 369.559,292.564 371.3,292.564C371.418,292.564 371.784,292.535 372.398,292.476C373.01,292.416 373.663,292.318 374.356,292.179C375.047,292.041 375.67,291.863 376.224,291.645C376.778,291.428 377.055,291.161 377.055,290.844ZM392.6,273.46C392.6,273.895 392.549,274.351 392.452,274.825C392.352,275.3 392.263,275.755 392.184,276.189C392.066,276.664 391.947,277.139 391.829,277.613C390.799,280.105 389.663,282.27 388.416,284.11C387.171,285.949 385.874,287.561 384.531,288.945C384.451,288.985 384.392,289.045 384.353,289.124C384.234,289.242 384.174,289.4 384.174,289.599L384.174,289.865C384.174,289.965 384.213,290.054 384.293,290.132C384.965,291.518 385.727,292.842 386.578,294.107C387.428,295.373 388.307,296.54 389.218,297.607C389.256,297.646 389.316,297.726 389.396,297.845C389.553,298.083 389.633,298.28 389.633,298.438C389.633,298.596 389.553,298.755 389.396,298.913C389.238,299.07 388.941,299.15 388.506,299.15C388.07,299.15 387.546,299.11 386.934,299.032C386.32,298.952 385.618,298.735 384.828,298.379C384.036,298.023 383.186,297.489 382.276,296.777C381.366,296.065 380.416,295.116 379.428,293.93C379.191,293.692 378.973,293.573 378.776,293.573C378.696,293.573 378.578,293.613 378.419,293.692C378.34,293.731 378.281,293.751 378.242,293.751C375.789,295.017 373.593,295.788 371.656,296.065C369.717,296.342 368.234,296.48 367.206,296.48C364.397,296.48 362.182,295.996 360.561,295.027C358.939,294.059 357.723,292.961 356.912,291.734C356.101,290.509 355.597,289.351 355.399,288.264C355.201,287.176 355.102,286.513 355.102,286.275C355.102,284.812 355.3,283.438 355.696,282.152C356.091,280.867 356.616,279.69 357.268,278.622C357.921,277.554 358.663,276.596 359.493,275.744C360.324,274.894 361.174,274.133 362.044,273.46C364.1,271.879 366.435,270.573 369.045,269.544C369.283,269.466 369.431,269.327 369.491,269.129C369.549,268.932 369.58,268.794 369.58,268.714C369.539,268.635 369.52,268.517 369.52,268.357L369.52,267.408C369.52,265.945 369.777,264.352 370.291,262.633C370.805,260.912 371.616,259.32 372.724,257.856C373.831,256.393 375.275,255.167 377.055,254.178C378.835,253.189 381.01,252.694 383.581,252.694C384.213,252.694 384.925,252.774 385.717,252.932C386.508,253.09 387.249,253.377 387.942,253.792C388.634,254.207 389.218,254.762 389.693,255.453C390.167,256.145 390.405,257.046 390.405,258.153C390.405,258.866 390.256,259.636 389.959,260.467C389.663,261.298 389.207,262.079 388.595,262.81C387.981,263.543 387.171,264.155 386.163,264.649C385.154,265.144 383.937,265.392 382.513,265.392C381.722,265.392 380.792,265.233 379.725,264.917C379.606,264.838 379.488,264.738 379.369,264.62C379.17,264.423 379.073,264.205 379.073,263.967C379.073,263.691 379.289,263.474 379.725,263.314C380.318,263.236 380.891,263.009 381.446,262.633C381.998,262.257 382.484,261.793 382.899,261.238C383.315,260.685 383.641,260.101 383.878,259.488C384.116,258.875 384.234,258.293 384.234,257.737C384.234,257.105 384.045,256.582 383.67,256.165C383.294,255.75 382.711,255.542 381.92,255.542C381.208,255.542 380.486,255.721 379.754,256.076C379.022,256.433 378.34,256.996 377.707,257.768C377.075,258.539 376.56,259.509 376.165,260.675C375.769,261.842 375.572,263.255 375.572,264.917C375.572,266.143 375.691,267.527 375.928,269.069C376.165,270.612 376.678,272.333 377.47,274.231C377.866,275.339 378.301,276.546 378.776,277.851C379.21,278.959 379.714,280.244 380.289,281.707C380.862,283.171 381.543,284.694 382.335,286.275C382.414,286.474 382.552,286.572 382.75,286.572C382.789,286.572 382.889,286.533 383.047,286.454C383.086,286.415 383.146,286.375 383.225,286.335C383.898,285.466 384.431,284.466 384.828,283.339C385.222,282.212 385.42,280.935 385.42,279.512C385.42,279.077 385.38,278.573 385.302,277.999C385.222,277.426 385.065,276.862 384.828,276.308C384.59,275.755 384.264,275.24 383.848,274.766C383.433,274.291 382.889,273.895 382.217,273.579C382.098,273.54 381.98,273.48 381.861,273.401C381.623,273.243 381.504,273.045 381.504,272.808C381.504,272.451 381.742,272.145 382.217,271.888C382.692,271.631 383.264,271.424 383.937,271.265C384.61,271.107 385.331,270.998 386.103,270.938C386.874,270.879 387.556,270.85 388.15,270.85C388.664,270.85 389.188,270.87 389.722,270.909C390.256,270.949 390.74,271.058 391.176,271.235C391.611,271.413 391.956,271.671 392.214,272.007C392.471,272.343 392.6,272.828 392.6,273.46Z" style="fill:rgb(83,110,77);fill-rule:nonzero;"/>
        <path d="M439.055,256.373C439.055,257.283 438.827,258.203 438.372,259.132C437.917,260.061 437.294,260.902 436.503,261.653C435.712,262.405 434.803,263.028 433.775,263.522C432.746,264.018 431.677,264.264 430.571,264.264C430.413,264.264 430.214,264.234 429.977,264.175C429.74,264.115 429.622,263.948 429.622,263.671C429.622,263.434 429.779,263.098 430.096,262.662C430.491,262.108 430.868,261.556 431.223,261.001C431.499,260.526 431.757,260.002 431.995,259.429C432.232,258.855 432.351,258.293 432.351,257.737C432.351,256.946 432.034,256.384 431.402,256.047C430.768,255.711 430.037,255.542 429.206,255.542C428.495,255.542 427.743,255.682 426.952,255.958C426.16,256.234 425.439,256.64 424.786,257.174C424.133,257.708 423.589,258.381 423.155,259.191C422.718,260.002 422.501,260.941 422.501,262.01C422.501,263.314 422.829,264.423 423.481,265.332C424.133,266.242 425.092,267.31 426.358,268.536C426.714,268.852 427.248,269.357 427.96,270.049C428.672,270.741 429.384,271.591 430.096,272.6C430.808,273.608 431.431,274.756 431.965,276.041C432.499,277.327 432.766,278.722 432.766,280.224C432.766,282.478 432.222,284.555 431.134,286.454C430.046,288.352 428.613,289.983 426.832,291.349C425.053,292.713 423.026,293.771 420.751,294.522C418.477,295.273 416.154,295.65 413.78,295.65C411.367,295.65 409.428,295.383 407.965,294.849C406.501,294.315 405.385,293.653 404.614,292.861C403.842,292.07 403.338,291.229 403.101,290.34C402.864,289.45 402.745,288.648 402.745,287.936C402.745,286.434 403.09,285.02 403.783,283.694C404.474,282.37 405.385,281.203 406.512,280.194C407.639,279.185 408.934,278.375 410.398,277.762C411.861,277.149 413.365,276.842 414.908,276.842C415.342,276.922 415.639,277.011 415.797,277.109C415.955,277.208 416.035,277.337 416.035,277.495C416.035,277.693 415.955,277.871 415.797,278.028C415.717,278.147 415.639,278.227 415.56,278.266C413.542,280.165 412.158,281.955 411.407,283.636C410.655,285.317 410.28,286.809 410.28,288.115C410.28,289.894 410.734,291.171 411.644,291.941C412.553,292.713 413.641,293.099 414.908,293.099C416.371,293.099 417.726,292.793 418.971,292.179C420.217,291.566 421.286,290.775 422.175,289.806C423.066,288.837 423.757,287.739 424.252,286.513C424.747,285.287 424.994,284.06 424.994,282.835C424.994,281.767 424.766,280.709 424.311,279.66C423.856,278.612 423.283,277.584 422.59,276.575C421.898,275.566 421.146,274.607 420.336,273.697C419.525,272.788 418.784,271.957 418.111,271.206C417.082,270.018 416.251,268.922 415.62,267.913C414.986,266.904 414.67,265.708 414.67,264.323C414.67,263.611 414.868,262.623 415.263,261.356C415.659,260.091 416.45,258.826 417.636,257.56C418.824,256.294 420.474,255.196 422.59,254.267C424.706,253.338 427.486,252.872 430.927,252.872C431.045,252.872 431.331,252.883 431.787,252.902C432.242,252.923 432.766,252.961 433.359,253.02C433.953,253.08 434.584,253.18 435.258,253.317C435.93,253.456 436.542,253.654 437.097,253.911C437.651,254.168 438.115,254.495 438.492,254.89C438.867,255.285 439.055,255.779 439.055,256.373Z" style="fill:rgb(83,110,77);fill-rule:nonzero;"/>
        <path d="M452.938,273.994C452.938,273.678 452.887,273.382 452.789,273.104C452.69,272.828 452.423,272.688 451.989,272.688C451.751,272.688 451.455,272.768 451.098,272.926C450.743,273.085 450.307,273.421 449.793,273.934C448.527,275.28 447.242,276.842 445.937,278.622C444.829,280.126 443.632,281.984 442.347,284.199C441.061,286.415 439.845,288.926 438.698,291.734L438.58,291.972C438.539,292.09 438.52,292.268 438.52,292.506C438.52,292.861 438.678,293.119 438.995,293.276C439.311,293.435 439.686,293.514 440.122,293.514C441.15,293.514 442.189,293.139 443.237,292.387C444.285,291.636 445.284,290.657 446.233,289.45C447.182,288.244 448.062,286.898 448.873,285.415C449.684,283.932 450.396,282.47 451.009,281.025C451.622,279.581 452.097,278.236 452.433,276.99C452.769,275.744 452.938,274.746 452.938,273.994ZM460.117,272.096C460.117,273.718 459.899,275.438 459.464,277.258C459.028,279.077 458.415,280.857 457.624,282.598C456.833,284.338 455.883,286.009 454.777,287.61C453.669,289.213 452.433,290.627 451.069,291.852C449.704,293.079 448.241,294.048 446.678,294.76C445.115,295.472 443.504,295.828 441.842,295.828C440.418,295.828 439.371,295.688 438.698,295.413C438.025,295.136 437.63,294.997 437.511,294.997C437.274,294.997 437.096,295.155 436.978,295.472C435.83,298.201 434.683,300.782 433.537,303.215C432.39,305.647 431.243,307.614 430.095,309.118C428.909,310.739 427.762,312.015 426.654,312.945C425.547,313.874 424.539,314.566 423.628,315.021C422.718,315.476 421.937,315.753 421.285,315.852C420.632,315.95 420.167,316 419.89,316C419.336,315.961 419.06,315.802 419.06,315.525C419.06,315.288 419.159,315.07 419.356,314.873C419.475,314.755 419.593,314.655 419.712,314.576C420.781,313.548 421.839,312.213 422.886,310.571C423.935,308.93 424.874,307.317 425.705,305.736C426.694,303.877 427.623,301.939 428.494,299.922C428.849,299.091 429.404,297.894 430.155,296.332C430.907,294.77 431.727,293.019 432.617,291.081C433.506,289.143 434.426,287.106 435.375,284.971C436.325,282.835 437.195,280.798 437.986,278.859C438.777,276.922 439.419,275.172 439.914,273.608C440.409,272.047 440.656,270.85 440.656,270.018C440.656,269.94 440.646,269.832 440.626,269.692C440.606,269.555 440.597,269.387 440.597,269.188C440.597,268.832 440.746,268.556 441.041,268.357C441.338,268.16 441.714,268.012 442.169,267.913C442.623,267.814 443.108,267.745 443.622,267.705C444.136,267.666 444.611,267.645 445.046,267.645C445.679,267.645 446.212,267.696 446.649,267.794C447.083,267.893 447.301,268.22 447.301,268.773C447.301,269.327 447.172,269.989 446.915,270.761C446.658,271.532 446.381,272.294 446.084,273.045C445.789,273.797 445.521,274.46 445.284,275.032C445.046,275.606 444.928,275.952 444.928,276.07C444.928,276.189 444.967,276.249 445.046,276.249C445.165,276.249 445.303,276.17 445.462,276.012C446.846,274.074 448.141,272.531 449.348,271.384C450.554,270.237 451.632,269.377 452.581,268.803C453.531,268.229 454.341,267.863 455.014,267.705C455.686,267.548 456.201,267.468 456.557,267.468C457.269,267.468 457.862,267.616 458.336,267.913C458.811,268.209 459.176,268.575 459.434,269.011C459.691,269.446 459.869,269.94 459.968,270.494C460.067,271.048 460.117,271.582 460.117,272.096Z" style="fill:rgb(83,110,77);fill-rule:nonzero;"/>
        <path d="M483.908,272.688C483.908,273.322 483.779,274.054 483.522,274.884C483.264,275.715 482.978,276.526 482.662,277.316C482.266,278.227 481.85,279.177 481.415,280.165C480.545,282.063 479.665,283.972 478.776,285.89C477.885,287.809 477.222,289.579 476.788,291.2C476.669,291.556 476.57,291.933 476.491,292.327C476.292,293.119 476.195,293.988 476.195,294.938C476.195,295.888 476.352,296.846 476.669,297.815C476.985,298.784 477.658,299.546 478.686,300.1C478.805,300.139 478.923,300.219 479.042,300.337C479.28,300.574 479.398,300.791 479.398,300.99C479.359,301.306 479.22,301.503 478.983,301.583C478.746,301.662 478.528,301.702 478.331,301.702C477.144,301.702 476.036,301.523 475.008,301.168C473.979,300.811 473.089,300.308 472.338,299.655C471.586,299.002 471.003,298.221 470.587,297.311C470.172,296.4 469.964,295.373 469.964,294.226C469.964,292.525 470.458,290.746 471.448,288.887L471.448,288.768C471.448,288.728 471.457,288.699 471.478,288.679C471.497,288.659 471.507,288.63 471.507,288.59C471.507,288.511 471.487,288.471 471.448,288.471C471.33,288.471 471.21,288.57 471.092,288.768C470.103,290.112 469.054,291.3 467.948,292.327C466.958,293.238 465.831,294.048 464.566,294.76C463.299,295.472 461.956,295.828 460.531,295.828C459.78,295.788 459.126,295.591 458.574,295.234C458.098,294.918 457.664,294.463 457.268,293.87C456.873,293.276 456.674,292.407 456.674,291.26C456.674,290.785 456.763,290.112 456.942,289.242C457.12,288.373 457.426,287.424 457.861,286.394C458.297,285.366 458.909,284.317 459.701,283.25C460.492,282.182 461.51,281.213 462.756,280.343C464.002,279.473 465.495,278.761 467.236,278.207C468.976,277.653 471.033,277.376 473.406,277.376C473.525,277.376 473.663,277.396 473.821,277.435C474.097,277.515 474.237,277.693 474.237,277.97C474.237,278.207 474.148,278.425 473.969,278.622C473.791,278.82 473.603,278.939 473.406,278.977C471.784,279.295 470.389,279.947 469.223,280.935C468.056,281.925 467.107,283.003 466.375,284.17C465.643,285.337 465.1,286.454 464.744,287.521C464.387,288.59 464.209,289.361 464.209,289.836C464.209,290.509 464.329,290.903 464.566,291.022C464.803,291.141 465.04,291.2 465.278,291.2C465.831,291.2 466.524,290.864 467.354,290.191C468.185,289.519 469.045,288.659 469.935,287.61C470.825,286.563 471.705,285.386 472.576,284.08C473.445,282.775 474.226,281.49 474.918,280.224C475.611,278.959 476.174,277.771 476.61,276.664C477.044,275.558 477.262,274.686 477.262,274.054C477.262,272.985 476.926,272.265 476.253,271.888C475.581,271.513 474.809,271.324 473.94,271.324C473.307,271.324 472.684,271.413 472.071,271.591C471.457,271.769 470.914,271.957 470.439,272.155C469.885,272.393 469.351,272.65 468.837,272.926C468.442,273.203 468.135,273.371 467.917,273.431C467.7,273.49 467.551,273.519 467.473,273.519C467.196,273.519 467.057,273.322 467.057,272.926C467.057,272.413 467.255,271.839 467.651,271.206C468.045,270.573 468.639,269.97 469.431,269.396C470.221,268.823 471.22,268.338 472.427,267.942C473.633,267.548 475.046,267.35 476.669,267.35C478.37,267.35 479.705,267.567 480.674,268.002C481.643,268.437 482.365,268.951 482.839,269.544C483.314,270.138 483.611,270.731 483.73,271.324C483.848,271.918 483.908,272.373 483.908,272.688Z" style="fill:rgb(83,110,77);fill-rule:nonzero;"/>
    </g>
</svg>
